<svg id="full-logo" xmlns="http://www.w3.org/2000/svg" viewBox="0 0 191.9 50"><defs><style>.cls-1{fill:#fff;}</style></defs><title>mail_logo</title><g id="Hoffmanntext"><path class="cls-1" d="M97.5,14.8v9.5H91.9v-4H90.2v4H84.6V14.8h5.6v3.4h1.7V14.8h5.6Z"/><path class="cls-1" d="M111.6,19.2v1.9a4.87,4.87,0,0,1-.2,1.5,3,3,0,0,1-1,.9,5.25,5.25,0,0,1-2,.6,21.58,21.58,0,0,1-2.8.2,23.64,23.64,0,0,1-3-.2,6.4,6.4,0,0,1-1.9-.5,2.09,2.09,0,0,1-1-.8,2.81,2.81,0,0,1-.3-1.5v-2a2.86,2.86,0,0,1,.5-1.7,4.75,4.75,0,0,1,1.9-1,16.08,16.08,0,0,1,3.5-.4,26.89,26.89,0,0,1,3.1.2,12.43,12.43,0,0,1,2,.6,2.09,2.09,0,0,1,1,.8A6.75,6.75,0,0,1,111.6,19.2Zm-5.3-.6a1.51,1.51,0,0,0-.1-0.8,1,1,0,0,0-1.2,0,1.29,1.29,0,0,0-.2.8v3.5a1,1,0,0,0,.2.7,1,1,0,0,0,1.2,0,1,1,0,0,0,.2-0.7V18.6h-0.1Z"/><path class="cls-1" d="M120.1,14.8V16a7.22,7.22,0,0,0-1.9.1,0.35,0.35,0,0,0-.3.4v0.2h2.2v1.2h-1.3v6.4h-5.3V17.9h-1.1V16.7h1.1a2.24,2.24,0,0,1,.1-1,1.58,1.58,0,0,1,.6-0.5,8.57,8.57,0,0,1,1.3-.3,17.83,17.83,0,0,1,2.6-.1h2Z"/><path class="cls-1" d="M128,14.8V16a7.22,7.22,0,0,0-1.9.1,0.35,0.35,0,0,0-.3.4v0.2H128v1.2h-1.3v6.4h-5.3V17.9h-1.1V16.7h1.1a2.24,2.24,0,0,1,.1-1,1.58,1.58,0,0,1,.6-0.5,8.57,8.57,0,0,1,1.3-.3,17.83,17.83,0,0,1,2.6-.1h2Z"/><path class="cls-1" d="M134.2,16.5l-0.1.7a5.23,5.23,0,0,1,1.5-.7,6.17,6.17,0,0,1,2-.2,5.93,5.93,0,0,1,3.4.9,6.89,6.89,0,0,1,1.5-.7,5.55,5.55,0,0,1,1.9-.2,6.46,6.46,0,0,1,2.2.3,1.61,1.61,0,0,1,1.1.7,2.42,2.42,0,0,1,.3,1.4v5.6h-5.2V19.2a2.23,2.23,0,0,0-.2-1.2,0.66,0.66,0,0,0-.7-0.2,1,1,0,0,0-.7.2,2.87,2.87,0,0,0-.2,1.2v5.1h-5.2v-5a4.18,4.18,0,0,0-.1-1.4,0.66,0.66,0,0,0-.7-0.2,1.27,1.27,0,0,0-.6.1,0.43,0.43,0,0,0-.3.3v6.1H129V16.4h5.2v0.1Z"/><path class="cls-1" d="M154.6,19.5h-5V19a2,2,0,0,1,.5-1.4,4.73,4.73,0,0,1,1.9-.9,12.63,12.63,0,0,1,3.7-.4,14.37,14.37,0,0,1,4.1.4,2.3,2.3,0,0,1,1.6,1,7.16,7.16,0,0,1,.3,2.6v3.9h-5.2V23.5a2.26,2.26,0,0,1-1.3.6,9,9,0,0,1-1.8.2,7.46,7.46,0,0,1-2.6-.4,1.42,1.42,0,0,1-1.2-1.5V21.8a1.21,1.21,0,0,1,.6-1.2,10.77,10.77,0,0,1,3.1-.7,13.67,13.67,0,0,0,2.8-.6,0.85,0.85,0,0,0,.2-0.6,1.29,1.29,0,0,0-.2-0.8,1.17,1.17,0,0,0-.7-0.2,1,1,0,0,0-.7.2,1.51,1.51,0,0,0-.1.8v0.8h0Zm1.7,1.1a4.08,4.08,0,0,0-1.5.7,1.88,1.88,0,0,0-.2.8,1.29,1.29,0,0,0,.2.8,1.17,1.17,0,0,0,.7.2,1.29,1.29,0,0,0,.7-0.1,1,1,0,0,0,.2-0.7V20.6h-0.1Z"/><path class="cls-1" d="M168.8,16.5l-0.1.7a3.51,3.51,0,0,1,1.4-.6,11.08,11.08,0,0,1,1.9-.2,6.46,6.46,0,0,1,2.2.3,1.61,1.61,0,0,1,1.1.7,2.81,2.81,0,0,1,.3,1.5v5.5h-5.3V19a2.24,2.24,0,0,0-.1-1,1.32,1.32,0,0,0-1.4,0,2.53,2.53,0,0,0-.1,1.1v5.3h-5.3V16.6h5.4V16.5Z"/><path class="cls-1" d="M183,16.5l-0.1.7a3.51,3.51,0,0,1,1.4-.6,11.08,11.08,0,0,1,1.9-.2,6.46,6.46,0,0,1,2.2.3,1.61,1.61,0,0,1,1.1.7,2.81,2.81,0,0,1,.3,1.5v5.5h-5.3V19a2.24,2.24,0,0,0-.1-1,1.32,1.32,0,0,0-1.4,0,2.53,2.53,0,0,0-.1,1.1v5.3h-5.3V16.6H183V16.5Z"/></g><g id="Logisticstext"><path class="cls-1" d="M130.9,35v5.5h2.2v1.4h-5.7V35h3.5Z"/><path class="cls-1" d="M141.5,38.2v1.4a2.68,2.68,0,0,1-.2,1.1,1.87,1.87,0,0,1-.6.7,3.92,3.92,0,0,1-1.3.5,9.72,9.72,0,0,1-1.8.1,10.32,10.32,0,0,1-1.9-.1,3.37,3.37,0,0,1-1.2-.4,1.7,1.7,0,0,1-.6-0.6,2.68,2.68,0,0,1-.2-1.1V38.4a2.13,2.13,0,0,1,.3-1.2,2.23,2.23,0,0,1,1.2-.7,6.87,6.87,0,0,1,2.2-.3,11.24,11.24,0,0,1,2,.2,10.38,10.38,0,0,1,1.3.4,1.17,1.17,0,0,1,.6.6A1.55,1.55,0,0,1,141.5,38.2Zm-3.4-.4c0-.3,0-0.5-0.1-0.5a0.85,0.85,0,0,0-.8,0,0.75,0.75,0,0,0-.1.5v2.6a0.62,0.62,0,0,0,.1.5,0.85,0.85,0,0,0,.8,0,0.62,0.62,0,0,0,.1-0.5V37.8Z"/><path class="cls-1" d="M150.4,36.2v4.4a2.53,2.53,0,0,1-.1,1.1,1,1,0,0,1-.6.5,9.78,9.78,0,0,1-3.6.6,8.8,8.8,0,0,1-2.6-.3,1.15,1.15,0,0,1-1-1.1h3.3a0.4,0.4,0,0,0,.5.4,0.46,0.46,0,0,0,.6-0.6V40.8l-0.9.3a3.4,3.4,0,0,1-1,.1,6.05,6.05,0,0,1-1.5-.2,1.23,1.23,0,0,1-.8-0.5,2,2,0,0,1-.2-0.9V37.5a1.43,1.43,0,0,1,.6-1.2,3.87,3.87,0,0,1,1.7-.4,4.87,4.87,0,0,1,1.2.1,1.88,1.88,0,0,1,.9.4l0.2-.4h3.3v0.2ZM147,37.7a0.62,0.62,0,0,0-.1-0.5,0.85,0.85,0,0,0-.8,0,0.62,0.62,0,0,0-.1.5v1.9a0.62,0.62,0,0,0,.1.5,0.48,0.48,0,0,0,.4.1c0.2,0,.4,0,0.4-0.1a3.54,3.54,0,0,0,.1-0.6V37.7Z"/><path class="cls-1" d="M155.1,35v0.9h-3.5V35h3.5Zm0,1.2v5.7h-3.5V36.2h3.5Z"/><path class="cls-1" d="M163.3,38h-3V37.7a0.62,0.62,0,0,0-.1-0.5,0.85,0.85,0,0,0-.8,0,0.37,0.37,0,0,0-.1.3,0.48,0.48,0,0,0,.1.4,1.38,1.38,0,0,0,.4.3,12.68,12.68,0,0,0,1.5.4,5.36,5.36,0,0,1,1.9.7,1.23,1.23,0,0,1,.1,1.9,2.25,2.25,0,0,1-1.2.5,11.24,11.24,0,0,1-2,.2,12.73,12.73,0,0,1-2.2-.2,2.26,2.26,0,0,1-1.3-.6,1.61,1.61,0,0,1-.3-1.1V39.7h3v0.4a0.92,0.92,0,0,0,.1.6,0.62,0.62,0,0,0,.5.1,0.75,0.75,0,0,0,.5-0.1,0.48,0.48,0,0,0,.1-0.4,0.59,0.59,0,0,0-.2-0.5,9.85,9.85,0,0,0-2-.6,3.74,3.74,0,0,1-1.8-.8,1.14,1.14,0,0,1-.3-0.8,1.05,1.05,0,0,1,.4-1,2.25,2.25,0,0,1,1.2-.5,11.24,11.24,0,0,1,2-.2,10.89,10.89,0,0,1,1.9.1,3.37,3.37,0,0,1,1.2.4,2.74,2.74,0,0,1,.5.4,0.92,0.92,0,0,1,.1.6V38h-0.2Z"/><path class="cls-1" d="M168,35.5v0.9h0.9v0.9H168v3c0,0.4,0,.6.1,0.6a5.53,5.53,0,0,0,.9.1v0.9h-3.1a2.92,2.92,0,0,1-.9-0.2,1.08,1.08,0,0,1-.5-0.4,2.81,2.81,0,0,1-.1-1.1V37.3h-0.7V36.4h0.7V35.5H168Z"/><path class="cls-1" d="M173.2,35v0.9h-3.5V35h3.5Zm0,1.2v5.7h-3.5V36.2h3.5Z"/><path class="cls-1" d="M181.9,38.4h-3.2V37.7a0.75,0.75,0,0,0-.1-0.5,0.85,0.85,0,0,0-.8,0,0.62,0.62,0,0,0-.1.5v2.7a0.76,0.76,0,0,0,.2.5,0.52,0.52,0,0,0,.4.2,0.76,0.76,0,0,0,.5-0.2,0.92,0.92,0,0,0,.1-0.6V39.6h3a2.51,2.51,0,0,1-.1,1,1.26,1.26,0,0,1-.6.7,3.34,3.34,0,0,1-1.2.5,9.2,9.2,0,0,1-1.9.2,13,13,0,0,1-2.3-.2,2.23,2.23,0,0,1-1.2-.7,2.27,2.27,0,0,1-.3-1.3V38.2a1.8,1.8,0,0,1,.3-1.1,3.12,3.12,0,0,1,1.2-.7,7.55,7.55,0,0,1,2.3-.3,8,8,0,0,1,2.3.3,3.16,3.16,0,0,1,1.3.7A3.92,3.92,0,0,1,181.9,38.4Z"/><path class="cls-1" d="M189.9,38h-3V37.7a0.62,0.62,0,0,0-.1-0.5,0.85,0.85,0,0,0-.8,0,0.37,0.37,0,0,0-.1.3,0.48,0.48,0,0,0,.1.4,1.38,1.38,0,0,0,.4.3,12.68,12.68,0,0,0,1.5.4,5.36,5.36,0,0,1,1.9.7,1.23,1.23,0,0,1,.1,1.9,2.25,2.25,0,0,1-1.2.5,11.24,11.24,0,0,1-2,.2,12.73,12.73,0,0,1-2.2-.2,2.26,2.26,0,0,1-1.3-.6,1.61,1.61,0,0,1-.3-1.1V39.7h3v0.4a0.92,0.92,0,0,0,.1.6,0.62,0.62,0,0,0,.5.1,0.75,0.75,0,0,0,.5-0.1,0.48,0.48,0,0,0,.1-0.4,0.59,0.59,0,0,0-.2-0.5,9.85,9.85,0,0,0-2-.6,3.74,3.74,0,0,1-1.8-.8,1.14,1.14,0,0,1-.3-0.8,1.05,1.05,0,0,1,.4-1,2.25,2.25,0,0,1,1.2-.5,11.24,11.24,0,0,1,2-.2,10.89,10.89,0,0,1,1.9.1,3.37,3.37,0,0,1,1.2.4,2.74,2.74,0,0,1,.5.4,0.92,0.92,0,0,1,.1.6V38h-0.2Z"/></g><g id="rightlines"><path class="cls-1" d="M54.5,46.2a1.61,1.61,0,0,1-1.3-.6,1.59,1.59,0,0,1-.4-1.2,1.74,1.74,0,0,1,.6-1.1L73.4,28a8.75,8.75,0,0,1,5.2-1.7H190.2a1.61,1.61,0,0,1,1.7,1.6,1.67,1.67,0,0,1-1.7,1.6H78.6a5.39,5.39,0,0,0-3,1l-20,15.3A1.5,1.5,0,0,1,54.5,46.2Z"/><path class="cls-1" d="M57.9,50a1.61,1.61,0,0,1-1.3-.6,1.59,1.59,0,0,1-.4-1.2,1.74,1.74,0,0,1,.6-1.1L75.5,32.4a8.75,8.75,0,0,1,5.2-1.7H190.2a1.61,1.61,0,0,1,1.7,1.6,1.67,1.67,0,0,1-1.7,1.6H80.7a5.39,5.39,0,0,0-3,1L59.1,49.6A1.92,1.92,0,0,1,57.9,50Z"/></g><path id="HLsimbol" class="cls-1" d="M74.6,24.8l-5.1-3.9c-6.1-4.7-11.9-9.1-17.8-13.4a1.88,1.88,0,0,0-.8-0.2,4.29,4.29,0,0,0-2.4,1c-6,4.5-12.1,9.1-18,13.6l-1.6,1.2a13.1,13.1,0,0,0-1.3,1.2l-0.8.8-0.2.2,0.2,0.1c1.6,1.2,3.2,2.5,4.8,3.7,6,4.7,11.7,9,17.5,13.4a2.89,2.89,0,0,0,1.4.4,2.82,2.82,0,0,0,1.5-.4c5.8-4.3,11.6-8.8,17.7-13.5,1.6-1.2,3.2-2.5,4.9-3.8l0.2-.2Zm-21.5,5a0.77,0.77,0,0,1-.8.7H48.2a0.77,0.77,0,0,1-.8-0.7v-4H43.8v4a0.77,0.77,0,0,1-.8.7H38.9a0.77,0.77,0,0,1-.8-0.7V18.6a0.77,0.77,0,0,1,.8-0.7H43a0.77,0.77,0,0,1,.8.7v3.3h3.6V18.6a0.77,0.77,0,0,1,.8-0.7h4.1a0.73,0.73,0,0,1,.43.14,0.61,0.61,0,0,1,.37.56V29.8ZM64.7,30a0.77,0.77,0,0,1-.8.7H54.6a0.77,0.77,0,0,1-.8-0.7V18.5a0.77,0.77,0,0,1,.8-0.7h3.7a0.7,0.7,0,0,1,.71.52,0.5,0.5,0,0,1,.09.28v8.2h4.8a0.77,0.77,0,0,1,.8.7V30Z"/><g id="leftlines"><path class="cls-1" d="M23.7,22.9H1.9A1.61,1.61,0,0,1,.2,21.3a1.67,1.67,0,0,1,1.7-1.6H23.7a3.92,3.92,0,0,0,2.6-.9L46.1,4.2a2.1,2.1,0,0,1,1.1-.4,1.61,1.61,0,0,1,1.3.6,1.48,1.48,0,0,1-.2,2.2L28.5,21.3A7.91,7.91,0,0,1,23.7,22.9Z"/><path class="cls-1" d="M21.4,18.5H1.7A1.61,1.61,0,0,1,0,16.9a1.67,1.67,0,0,1,1.7-1.6H21.4a3.92,3.92,0,0,0,2.6-.9l18.6-14A1.5,1.5,0,0,1,43.7,0,1.61,1.61,0,0,1,45,.6a1.48,1.48,0,0,1-.2,2.2L26.2,16.9A7.91,7.91,0,0,1,21.4,18.5Z"/></g></svg>